<?xml version="1.0" encoding="utf-8"?>
<!-- Generator: Adobe Illustrator 22.0.1, SVG Export Plug-In . SVG Version: 6.00 Build 0)  -->
<svg version="1.1" id="Layer_1" xmlns="http://www.w3.org/2000/svg" xmlns:xlink="http://www.w3.org/1999/xlink" x="0px" y="0px"
	 viewBox="0 0 155.1 75.1" style="enable-background:new 0 0 155.1 75.1;" xml:space="preserve">
<style type="text/css">
	.st0{fill:#EEDB22;}
	.st1{fill:#E27F26;}
	.st2{fill:#79BC43;}
	.st3{fill:#2574BB;}
	.st4{fill:#FFFFFF;}
</style>
<g transform="translate(107 54)">
	<g>
		<path id="Path_17_1_" class="st0" d="M-24.1,17.1c0-0.9-0.5-1.4-1.4-1.4c-0.7,0-1.3,0.6-1.4,1.4H-24.1z M-28.6,17.8L-28.6,17.8
			c-0.1-1.8,1.2-3.2,2.9-3.3c0.1,0,0.2,0,0.3,0c1.6-0.1,2.9,1.1,3,2.7c0,0.2,0,0.3,0,0.5v0.5h-4.4c0,1,0.6,1.6,1.5,1.6
			s1.2-0.3,1.3-0.9h1.6c-0.2,1.4-1.3,2.1-2.9,2.1c-1.7,0.1-3.1-1.1-3.2-2.8C-28.6,18.1-28.6,17.9-28.6,17.8"/>
		<path id="Path_18_1_" class="st0" d="M-21.6,14.6h1.7v1c0.4-0.7,1.2-1.2,2-1.1c1.2,0,2.1,0.7,2.1,2.4v3.9h-1.7v-3.7
			c0-0.8-0.3-1.2-1.1-1.2c-0.7,0-1.3,0.5-1.3,1.2c0,0.1,0,0.1,0,0.2v3.6h-1.7V14.6z"/>
		<path id="Path_19_1_" class="st0" d="M-14.5,19v-3.1h-0.8v-1.2h0.8v-1.4h1.7v1.4h1.4v1.2h-1.4v3c0,0.5,0.2,0.7,0.7,0.7
			c0.2,0,0.4,0,0.6-0.1v1.4c-0.3,0.1-0.7,0.2-1,0.2c-1,0.1-1.9-0.5-2-1.5C-14.5,19.3-14.5,19.2-14.5,19"/>
		<path id="Path_20_1_" class="st0" d="M-6.5,17.1c0-0.9-0.5-1.4-1.4-1.4c-0.7,0-1.3,0.6-1.4,1.4H-6.5z M-11,17.8L-11,17.8
			c-0.1-1.8,1.2-3.2,2.9-3.3c0.1,0,0.2,0,0.3,0c1.6-0.1,2.9,1.1,3,2.7c0,0.2,0,0.3,0,0.5v0.5h-4.5c0,1,0.6,1.6,1.5,1.6
			s1.2-0.3,1.3-0.9h1.6C-5.1,20.3-6.2,21-7.8,21c-1.7,0.1-3.1-1.1-3.2-2.8C-11,18.1-11,17.9-11,17.8"/>
		<path id="Path_21_1_" class="st0" d="M-4,14.6h1.7v1.2c0.3-0.8,1.1-1.3,2-1.3v1.6c-1.3,0-2,0.4-2,1.6v3.1H-4V14.6z"/>
		<path id="Path_22_1_" class="st0" d="M0.8,19v-3.1H0v-1.2h0.8v-1.4h1.6v1.4h1.4v1.2H2.4v3c0,0.5,0.2,0.7,0.7,0.7
			c0.2,0,0.4,0,0.7-0.1v1.4c-0.3,0.1-0.7,0.2-1,0.2c-1,0.1-1.9-0.5-2-1.5C0.7,19.3,0.7,19.2,0.8,19"/>
		<path id="Path_23_1_" class="st0" d="M8.1,18.7v-0.5H7.5c-1,0-1.6,0.2-1.6,0.9c0,0.7,0.3,0.7,0.9,0.7S8.2,19.3,8.1,18.7 M4.3,19.1
			c0-1.4,1.4-2,3.2-2h0.7v-0.2c0-0.7-0.2-1.1-1-1.1c-0.5-0.1-1,0.3-1,0.8v0.1H4.5c0.1-1.5,1.3-2.1,2.7-2.1s2.6,0.6,2.6,2.3v4H8.2
			v-0.7c-0.4,0.6-1.1,0.9-1.9,0.9C5.2,21,4.2,20.4,4.3,19.1"/>
		<path id="Path_24_1_" class="st0" d="M11,14.6h1.7v6.2H11V14.6z M10.9,12.9c0-0.5,0.4-0.9,0.9-0.9l0,0c0.5,0,1,0.4,1,0.9l0,0
			c0,0.5-0.4,0.9-1,0.9l0,0C11.3,13.8,10.9,13.4,10.9,12.9L10.9,12.9"/>
		<path id="Path_25_1_" class="st0" d="M13.9,14.6h1.7v1c0.4-0.7,1.2-1.2,2-1.1c1.2,0,2.1,0.7,2.1,2.4v3.9H18v-3.7
			c0-0.8-0.3-1.2-1.1-1.2c-0.7,0-1.3,0.5-1.3,1.2c0,0.1,0,0.1,0,0.2v3.6h-1.7C13.9,20.9,13.9,14.6,13.9,14.6z"/>
		<path id="Path_26_1_" class="st0" d="M20.8,14.6h1.7v0.9c0.4-0.7,1.1-1.1,1.9-1.1c0.8-0.1,1.5,0.4,1.7,1.1
			c0.5-0.7,1.3-1.1,2.1-1.1c1.1,0,2,0.7,2,2.4v3.9h-1.7V17c0-0.8-0.4-1.1-1-1.1s-1.2,0.5-1.2,1.1c0,0.1,0,0.1,0,0.2v3.6h-1.7V17
			c0-0.8-0.4-1.1-1-1.1s-1.2,0.5-1.2,1.1c0,0.1,0,0.1,0,0.2v3.6h-1.7v-6.2H20.8z"/>
		<path id="Path_27_1_" class="st0" d="M35.5,17.1c0-0.9-0.5-1.4-1.4-1.4c-0.7,0-1.3,0.6-1.4,1.4H35.5z M31,17.8L31,17.8
			c-0.1-1.8,1.2-3.2,2.9-3.3c0.1,0,0.2,0,0.3,0c1.6-0.1,2.9,1.1,3,2.7c0,0.2,0,0.3,0,0.5v0.5h-4.5c-0.1,0.8,0.5,1.5,1.3,1.6
			c0.1,0,0.1,0,0.2,0c0.8,0,1.2-0.3,1.3-0.9H37c-0.2,1.4-1.3,2.1-2.9,2.1c-1.7,0.1-3.1-1.1-3.2-2.8C31,18.1,31,17.9,31,17.8"/>
		<path id="Path_28_1_" class="st0" d="M37.9,14.6h1.7v1c0.4-0.7,1.2-1.2,2-1.1c1.2,0,2.1,0.7,2.1,2.4v3.9H42v-3.7
			c0-0.8-0.3-1.2-1.1-1.2c-0.7,0-1.3,0.5-1.3,1.2c0,0.1,0,0.1,0,0.2v3.6h-1.7V14.6z"/>
		<path id="Path_29_1_" class="st0" d="M45.1,19v-3.1h-0.8v-1.2h0.8v-1.4h1.7v1.4h1.3v1.2h-1.3v3c0,0.5,0.2,0.7,0.7,0.7
			c0.2,0,0.4,0,0.6-0.1v1.4c-0.3,0.1-0.7,0.2-1,0.2c-1,0.1-1.9-0.5-2-1.5C45.1,19.3,45.1,19.2,45.1,19"/>
	</g>
	<g>
		<path id="Path_11_1_" class="st1" d="M-24.1,6.3c0-0.9-0.5-1.4-1.4-1.4c-0.8,0-1.4,0.6-1.4,1.4l0,0H-24.1z M-28.6,7.1L-28.6,7.1
			c-0.1-1.8,1.2-3.2,2.9-3.3c0.1,0,0.2,0,0.3,0c1.6-0.1,2.9,1.1,3,2.7c0,0.2,0,0.3,0,0.5v0.5h-4.4c-0.1,0.7,0.5,1.4,1.3,1.5
			c0.1,0,0.2,0,0.2,0c0.8,0,1.2-0.3,1.3-0.9h1.6c-0.2,1.4-1.3,2.1-2.9,2.1c-1.7,0.1-3.1-1.1-3.2-2.8C-28.6,7.3-28.6,7.2-28.6,7.1"/>
		<path id="Path_12_1_" class="st1" d="M-22.4,3.9h1.8l1.5,4.4l1.5-4.4h1.7l-2.2,6.2H-20L-22.4,3.9z"/>
		<path id="Path_13_1_" class="st1" d="M-11.6,6.3c0-0.9-0.5-1.4-1.4-1.4c-0.8,0-1.4,0.6-1.4,1.4l0,0H-11.6z M-16.1,7.1L-16.1,7.1
			c-0.1-1.8,1.2-3.2,2.9-3.3c0.1,0,0.2,0,0.3,0c1.6-0.1,2.9,1.1,3,2.7c0,0.2,0,0.3,0,0.5v0.5h-4.4C-14.4,8.3-13.8,9-13,9.1
			c0.1,0,0.1,0,0.2,0c0.8,0,1.2-0.3,1.3-0.9h1.6c-0.2,1.4-1.3,2.1-2.9,2.1c-1.6,0.1-3.1-1.1-3.2-2.7C-16.1,7.3-16.1,7.2-16.1,7.1"/>
		<path id="Path_14_1_" class="st1" d="M-9.1,3.9h1.7v1c0.4-0.7,1.2-1.2,2-1.1c1.2,0,2.1,0.7,2.1,2.4v3.9H-5V6.4
			c0-0.8-0.3-1.2-1.1-1.2c-0.7,0-1.2,0.5-1.3,1.1c0,0.1,0,0.2,0,0.2v3.6h-1.7V3.9z"/>
		<path id="Path_15_1_" class="st1" d="M-1.9,8.2V5.1h-0.8V3.9h0.8V2.5h1.7v1.4h1.3v1.2h-1.4v3c0,0.5,0.2,0.7,0.7,0.7
			c0.2,0,0.4,0,0.7-0.1v1.4c-0.3,0.1-0.7,0.2-1,0.2c-1,0.1-1.9-0.5-2-1.5C-2,8.6-2,8.4-1.9,8.2"/>
		<path id="Path_16_1_" class="st1" d="M1.5,8.1h1.6C3.1,8.6,3.4,9,4.2,9s1-0.2,1-0.7S4.8,7.7,3.9,7.6C2.3,7.4,1.6,6.9,1.6,5.7
			s1.2-2,2.5-2s2.4,0.5,2.6,1.9H5C4.9,5.2,4.7,4.9,4.1,4.9S3.2,5.2,3.2,5.5S3.5,6,4.4,6.2c1.5,0.2,2.4,0.6,2.4,1.9s-1,2-2.6,2
			S1.6,9.5,1.5,8.1"/>
	</g>
	<g>
		<path id="Path_6_1_" class="st2" d="M-28.3-2.9v-4h1.7v3.8c0,0.8,0.3,1.2,1.1,1.2c0.7,0,1.3-0.5,1.3-1.2c0-0.1,0-0.1,0-0.2v-3.6
			h1.7v6.2h-1.7v-1c-0.4,0.7-1.2,1.2-2,1.1C-27.4-0.6-28.2-1.3-28.3-2.9"/>
		<path id="Path_7_1_" class="st2" d="M-21.3-6.9h1.7v1.2c0.3-0.8,1.1-1.3,2-1.3v1.6c-1.3,0-2,0.4-2,1.6v3.1h-1.7V-6.9z"/>
		<path id="Path_8_1_" class="st2" d="M-12.2-3.7L-12.2-3.7c0-1.4-0.6-2-1.5-2s-1.5,0.6-1.5,1.9v0.1c0,1.2,0.6,1.8,1.5,1.8
			S-12.2-2.5-12.2-3.7 M-15.2-1.7v1h-1.7v-9h1.7v3.8c0.4-0.7,1.2-1.1,2-1.1c1.5,0,2.7,1.1,2.7,3.2v0.1c0,2-1.2,3.2-2.7,3.2
			C-14-0.5-14.8-1-15.2-1.7"/>
		<path id="Path_9_1_" class="st2" d="M-6.2-2.8v-0.5h-0.7c-1,0-1.6,0.2-1.6,0.9c0,0.4,0.3,0.7,0.9,0.7S-6.2-2.2-6.2-2.8 M-10.1-2.4
			c0-1.4,1.4-2,3.2-2h0.7v-0.2c0-0.7-0.2-1.1-1-1.1c-0.5-0.1-1,0.3-1,0.8v0.1h-1.7c0.1-1.5,1.3-2.1,2.7-2.1s2.6,0.6,2.6,2.3v4.1
			h-1.6v-0.8c-0.4,0.6-1.1,0.9-1.9,0.9c-1,0.1-1.9-0.6-2-1.6C-10.1-2.1-10.1-2.2-10.1-2.4"/>
		<path id="Path_10_1_" class="st2" d="M-3.4-6.9h1.7v1c0.4-0.7,1.2-1.2,2-1.1c1.2,0,2.1,0.7,2.1,2.4v3.9H0.7v-3.7
			c0-0.8-0.3-1.2-1.1-1.2c-0.7,0-1.2,0.5-1.3,1.1c0,0.1,0,0.2,0,0.2v3.6h-1.7V-6.9z"/>
	</g>
	<g>
		<path id="Path_1_1_" class="st3" d="M-28.2-17.6h1.7v0.9c0.4-0.7,1.1-1.1,1.9-1.1c0.7-0.1,1.4,0.4,1.7,1.1
			c0.5-0.7,1.2-1.1,2.1-1.1c1.1,0,2,0.7,2,2.3v4h-1.7v-3.8c0-0.8-0.4-1.1-1-1.1s-1.2,0.5-1.2,1.1v0.1v3.6h-1.7v-3.8
			c0-0.8-0.4-1.1-1-1.1s-1.2,0.5-1.2,1.1c0,0.1,0,0.1,0,0.2v3.6h-1.7v-6H-28.2z"/>
		<path id="Path_2_1_" class="st3" d="M-13.5-15.2c0-0.9-0.5-1.4-1.4-1.4c-0.8,0-1.4,0.6-1.4,1.4l0,0H-13.5z M-18.1-14.5L-18.1-14.5
			c-0.1-1.7,1.2-3.1,2.9-3.2c0.1,0,0.2,0,0.3,0c1.6-0.1,2.9,1.1,3,2.7c0,0.2,0,0.3,0,0.5v0.5h-4.4c-0.1,0.8,0.5,1.5,1.3,1.6
			c0.1,0,0.1,0,0.2,0c0.8,0,1.2-0.3,1.3-0.9h1.6c-0.2,1.4-1.3,2.1-2.9,2.1c-1.6,0.2-3.1-1-3.3-2.7C-18.1-14.1-18.1-14.3-18.1-14.5"
			/>
		<path id="Path_3_1_" class="st3" d="M-6.7-14.5L-6.7-14.5c0-1.3-0.5-1.9-1.5-1.9c-0.9,0-1.5,0.6-1.5,1.9v0.1
			c0,1.2,0.6,1.8,1.4,1.8C-7.4-12.7-6.7-13.3-6.7-14.5 M-11.5-14.5L-11.5-14.5c0-2,1.2-3.2,2.7-3.2c0.8-0.1,1.6,0.4,2,1.1v-3.8h1.7
			v9h-1.7v-1c-0.4,0.7-1.2,1.1-2,1.1C-10.3-11.3-11.5-12.4-11.5-14.5"/>
		<path id="Path_4_1_" class="st3" d="M-3.9-17.6h1.7v6.2h-1.7V-17.6z M-4-19.4c0-0.5,0.4-1,1-1s1,0.4,1,1c0,0.5-0.4,1-1,1
			S-4-18.9-4-19.4L-4-19.4"/>
		<path id="Path_5_1_" class="st3" d="M2.6-13.6v-0.5H1.9c-1,0-1.6,0.2-1.6,0.9c0,0.4,0.3,0.7,0.9,0.7S2.6-12.9,2.6-13.6 M-1.4-13.1
			c0-1.4,1.4-2,3.2-2h0.7v-0.2c0-0.7-0.2-1.1-1-1.1c-0.5-0.1-1,0.3-1,0.8v0.1h-1.6c0.1-1.5,1.3-2.1,2.7-2.1s2.6,0.6,2.6,2.3v4H2.6
			v-0.8c-0.4,0.6-1.1,0.9-1.9,0.9C-0.4-11.3-1.4-11.8-1.4-13.1"/>
	</g>
	<g>
		<path id="Path_30_1_" class="st4" d="M-106.9-54.1v74.8h20.1v-2.9h-17.2v-69l69,0V6.4h2.9v-60.4H-106.9z"/>
		<g>
			<path id="Path_31_1_" class="st4" d="M-83.9,20.7V9.3h10.2v2.9H-81v1.4h4.8v2.7H-81v1.7h7.4v2.8L-83.9,20.7z"/>
			<path id="Path_32_1_" class="st4" d="M-72.4,20.7V9.3h2.8v8.6h7v2.8L-72.4,20.7z"/>
			<path id="Path_33_1_" class="st4" d="M-49.1,20.7l-1.2-2.2h-6.4l-1.2,2.2h-3.5l6.3-11.5h3.2l6.3,11.5H-49.1z M-51.9,15.6l-1.6-3
				l-1.7,3L-51.9,15.6z"/>
			<path id="Path_34_1_" class="st4" d="M-35.7,20.7l-6.1-7.8v7.8h-2.9V9.3h3.6L-35,17V9.3h2.9v11.5H-35.7z"/>
		</g>
		<g>
			<path id="Path_35_1_" class="st4" d="M-46-28.1L-46-28.1c-2.2,0.5-2.6,3.6-2.3,5.5c0.3,1.1,0.7,2.1,1.1,3.2c1,2.4,2.2,5.5,2,7.1
				c-0.3,2.2-2.1,3.9-4.3,3.9c-0.3,0-0.6,0-1-0.1h-0.1c-0.1,0-0.2,0.1-0.2,0.1v0.2l0.1,0.1c0.6,0.3,1.2,0.4,1.9,0.4
				c1.5,0,3.5-0.7,4.6-4.3c1.4-4.5-0.3-8-1.4-10.6c-0.4-0.8-0.7-1.5-0.9-2.4c-0.4-1-0.1-2.2,0.6-3l0.1-0.1l0.2-0.2L-46-28.1"/>
			<path id="Path_36_1_" class="st4" d="M-64.4-18c-0.1,0-1.1,0.1-1.1,3.3c0,1.5,0.2,3,0.6,4.4l0,0v0.5c0,1.7,0,6.4-2.7,7.7
				c0.4-1.8,0.3-3.7-1.1-7l-0.2-0.5c-1.1-2.5-1.6-3.8-1.4-5.1v-0.2l-0.2,0.1c-1.2,0.9-1.8,2.4-1.5,3.9c0.4,1.9,1.2,3.6,2.2,5.2
				c0.6,0.9,1,1.8,1.4,2.8c0.1,0.4,0.1,0.8,0.1,1.1c-0.6,0.2-1.3,0.3-1.9,0.3c-0.7,0-1.5-0.1-2.1-0.4c-0.1-0.8-0.3-1.6-0.6-2.3
				c-1.6-4-1.2-5-1.2-5v-0.2h-0.2l-0.2,0.1c-1.3,0.7-1.9,2.1-1.5,3.5c0.3,1.2,0.7,2.3,1.4,3.3c0.7,1,1.1,2.2,1.2,3.5
				c0,0-1,3.6-4.2,3.9h-0.7c-2.4,0.1-4.4-1.7-4.6-4.1c0-0.1,0-0.1,0-0.2c-0.3-2.7,1.5-5.2,3.2-7.6l0.7-0.9l2.2-2.9l-3.6-2.7
				l-2.1,3.4l2.9,2l-0.3,0.4c-1.2,1.6-3.9,5.2-4,8.5c-0.1,1.5,0.5,3,1.6,4.1c1,1,2.4,1.6,3.9,1.5c0.3,0,0.6,0,0.9,0
				c1.6-0.2,3.8-1.2,4.9-4.9c0.2-0.8,0.3-1.6,0.4-2.4c0.9,0.4,1.9,0.6,2.9,0.7c0.8,0,1.6-0.2,2.4-0.6c2-1.2,3-3.6,3-7.4h0.1
				c0.1,0.3,0.2,0.6,0.4,0.9c1.4,1.8,3.5,2.9,5.8,3h0.2c2.5-0.1,3.6-1.6,4.9-3.4c0.2-0.2,0.3-0.4,0.5-0.7c1.1-1.4,2-2.9,2.8-4.5
				c0.1-0.2,0.1-0.3,0-0.5c-0.1-0.1-0.2-0.2-0.3-0.3h-0.1v0.1c-0.4,0.8-1.2,1.4-2.1,1.6h-0.3c-0.7,0-1.4-0.3-1.9-0.8
				c-1-0.7-1.5-1.9-1.5-3.1c0.3-0.5,0.8-0.8,1.4-1h0.2c0.8,0.1,1.5,0.7,1.7,1.5v0.1h0.1c0.3-0.1,0.5-0.4,0.5-0.7
				c0-0.8-0.6-1.5-1.4-1.7c-0.2-0.1-0.5-0.1-0.7-0.1c-1,0.1-2,0.7-2.5,1.6c-0.7,1.1-1.2,2.3-1.6,3.6c-0.2,1.3,1.5,3.5,3.6,4.2
				c-0.8,1.3-2.1,2.1-3.6,2.3h-0.1c-2.6,0-4.9-2.1-6-5.3c-0.5-2.1-0.6-4.3-0.3-6.4v-0.1L-64.4-18"/>
			<path id="Path_37_1_" class="st4" d="M-47.3-7h-0.3c-0.4,0.1-0.9,0.3-1.3,0.5c-0.4,0.5-0.5,1.2-0.3,1.8c-0.5-0.1-0.9-0.3-1.2-0.6
				l-0.1-0.1l-0.1,0.1c-0.1,0.2-0.2,0.4-0.1,0.6c0,0.3,0.2,0.5,0.4,0.6c0.2,0.1,0.5,0.2,0.7,0.2c0.3,0,0.5,0,0.8-0.1h0.3
				c0.6-0.1,1.2-0.2,1.8-0.4l0.2-0.2v-0.3H-47c-0.5,0-0.8-0.3-0.8-0.8c-0.1-0.4,0.1-0.8,0.4-1l0,0l0.4,0.1c0.2,0.2,0.2,0.5,0,0.7
				v0.1l0.1,0.1c0,0,0.1,0,0.2,0c0.1,0,0.3-0.1,0.3-0.2c0.1-0.2,0.1-0.5,0-0.7C-46.6-6.9-46.9-7.1-47.3-7"/>
		</g>
	</g>
</g>
</svg>
